<?xml version="1.0" encoding="UTF-8" standalone="no"?>
<svg
   width="943.11"
   height="911.62"
   data-name="Layer 1"
   version="1.1"
   id="svg1"
   sodipodi:docname="svg.svg"
   inkscape:version="1.4.2 (ebf0e940d0, 2025-05-08)"
   xmlns:inkscape="http://www.inkscape.org/namespaces/inkscape"
   xmlns:sodipodi="http://sodipodi.sourceforge.net/DTD/sodipodi-0.dtd"
   xmlns="http://www.w3.org/2000/svg"
   xmlns:svg="http://www.w3.org/2000/svg">
  <defs
     id="defs1" />
  <sodipodi:namedview
     id="namedview1"
     pagecolor="#ffffff"
     bordercolor="#000000"
     borderopacity="0.25"
     inkscape:showpageshadow="2"
     inkscape:pageopacity="0.0"
     inkscape:pagecheckerboard="0"
     inkscape:deskcolor="#d1d1d1"
     inkscape:zoom="1.8709873"
     inkscape:cx="547.8391"
     inkscape:cy="646.98461"
     inkscape:window-width="1916"
     inkscape:window-height="1158"
     inkscape:window-x="0"
     inkscape:window-y="0"
     inkscape:window-maximized="1"
     inkscape:current-layer="svg1" />
  <g
     id="g1">
    <title
       id="title1">Layer 1</title>
    <ellipse
       id="svg_1"
       fill="#46509e"
       ry="454.28"
       rx="471.56"
       cy="454.28"
       cx="471.56" />
    <ellipse
       id="svg_2"
       fill="#37474f"
       ry="207"
       rx="233.66"
       cy="390.28"
       cx="471.56" />
    <path
       id="svg_3"
       fill="#37474f"
       d="m705.22,849c-36.69,21.14 -123.09,64.32 -240.64,62.57a469.81,469.81 0 0 1 -226.69,-62.57l0,-454.24l467.33,0l0,454.24z" />
    <path
       id="svg_4"
       fill="#fff"
       d="m658.81,397.7l0,475.79a478.12,478.12 0 0 1 -374.19,0l0,-475.79c0,-95.55 83.78,-173 187.1,-173s187.09,77.45 187.09,173z" />
    <polygon
       id="svg_5"
       fill="#46509e"
       points="565.02 431.68 471.56 514.49 378.09 431.68 565.02 431.68" />
    <ellipse
       id="svg_6"
       fill="#37474f"
       ry="20.7"
       rx="23.37"
       cy="369.58"
       cx="378.09" />
    <ellipse
       id="svg_7"
       fill="#37474f"
       ry="20.7"
       rx="23.37"
       cy="369.58"
       cx="565.02" />
    <path
       id="svg_8"
       fill="#37474f"
       d="m658.49,400.63c0,-40 -36.6,-72.45 -81.79,-72.45s-81.78,32.41 -81.78,72.45a64.79,64.79 0 0 0 7.9,31.05l-62.53,0a64.79,64.79 0 0 0 7.9,-31.05c0,-40 -36.59,-72.45 -81.78,-72.45s-81.79,32.41 -81.79,72.45l-46.73,-10.35c0,-114.31 104.64,-207 233.67,-207s233.66,92.69 233.66,207l-46.73,10.35z" />
    <path
       id="svg_9"
       d="m343.44501,607.19l251,234"
       opacity="undefined"
       stroke-linecap="undefined"
       stroke-linejoin="undefined"
       stroke-width="40"
       stroke="#000"
       fill="none" />
    <path
       id="svg_10"
       d="m609.1116,614.52331l-260.99997,225.99997"
       opacity="undefined"
       stroke-linecap="undefined"
       stroke-linejoin="undefined"
       stroke-width="40"
       stroke="#000"
       fill-opacity="0"
       fill="none" />
  </g>
  <path
     id="path1"
     style="fill:#46509e;fill-opacity:1;stroke-width:1.16499"
     d="M 357.13281 593.59961 L 346.05469 605.41797 C 339.96207 611.91794 334.12136 618.33275 333.07422 619.67188 C 331.21765 622.04615 332.5983 623.43791 388.68359 675.6875 C 420.31643 705.15696 446.06611 729.59351 445.9043 729.99023 C 445.74249 730.38696 421.2322 751.79251 391.4375 777.55859 C 361.64279 803.32468 337.1245 824.79121 336.95117 825.26367 C 336.77784 825.73612 342.20061 832.53417 349.00195 840.36914 L 361.36719 854.61523 L 368.53906 848.35938 C 420.84792 802.73638 474.67466 756.65242 475.34961 756.91406 C 475.81922 757.09612 499.72663 779.17834 528.47656 805.98438 L 580.75 854.72266 L 593.80859 840.93359 C 600.99113 833.34995 606.84974 826.88287 606.82812 826.5625 C 606.80656 826.24212 585.31964 806.0593 559.08008 781.71094 C 532.8405 757.36258 509.85158 735.86755 507.99219 733.94531 L 504.61133 730.45117 L 562.69336 680.35547 C 594.63876 652.80338 620.68308 629.90431 620.56836 629.46875 C 620.45364 629.03319 614.90619 622.33981 608.24219 614.59375 C 597.56986 602.18851 595.90317 600.69791 594.26172 602.09375 C 593.23677 602.96534 566.96462 625.64915 535.87695 652.50195 C 504.78928 679.35475 478.54623 701.96192 477.56055 702.73828 C 476.04647 703.93081 466.56463 695.57214 416.45117 648.875 L 357.13281 593.59961 z " />
</svg>
